<!DOCTYPE svg PUBLIC "-//W3C//DTD SVG 1.1//EN" "http://www.w3.org/Graphics/SVG/1.1/DTD/svg11.dtd">
<!-- Uploaded to: SVG Repo, www.svgrepo.com, Transformed by: SVG Repo Mixer Tools -->
<svg fill="#ffffff" height="800px" width="800px" version="1.1" id="Layer_1" xmlns="http://www.w3.org/2000/svg" xmlns:xlink="http://www.w3.org/1999/xlink" viewBox="0 0 512 512" xml:space="preserve" stroke="#ffffff">
<g id="SVGRepo_bgCarrier" stroke-width="0"/>
<g id="SVGRepo_tracerCarrier" stroke-linecap="round" stroke-linejoin="round"/>
<g id="SVGRepo_iconCarrier"> <g> <g> <g> <path d="M366.933,298.667h102.4c4.719,0,8.533-3.823,8.533-8.533V256c0-4.71-3.814-8.533-8.533-8.533S460.8,251.29,460.8,256 v25.6h-93.867c-4.719,0-8.533,3.823-8.533,8.533S362.214,298.667,366.933,298.667z"/> <path d="M460.8,153.6v-34.133c0-4.71-3.814-8.533-8.533-8.533c-4.719,0-8.533,3.823-8.533,8.533v25.6h-179.2 c-4.71,0-8.533,3.823-8.533,8.533c0,4.71,3.823,8.533,8.533,8.533h187.733C456.986,162.133,460.8,158.31,460.8,153.6z"/> <path d="M128,145.067c4.71,0,8.533-3.823,8.533-8.533V25.6h307.2v51.2h-281.6c-4.71,0-8.533,3.823-8.533,8.533 s3.823,8.533,8.533,8.533h290.133c4.719,0,8.533-3.823,8.533-8.533V17.067c0-4.71-3.814-8.533-8.533-8.533H128 c-4.71,0-8.533,3.823-8.533,8.533v119.467C119.467,141.244,123.29,145.067,128,145.067z"/> <path d="M460.8,213.333h-128c-4.719,0-8.533,3.823-8.533,8.533c0,4.71,3.814,8.533,8.533,8.533h136.533 c4.719,0,8.533-3.823,8.533-8.533v-34.133c0-4.71-3.814-8.533-8.533-8.533s-8.533,3.823-8.533,8.533V213.333z"/> <path d="M477.867,349.867H366.933c-4.719,0-8.533,3.823-8.533,8.533s3.814,8.533,8.533,8.533H486.4 c4.719,0,8.533-3.823,8.533-8.533v-34.133c0-4.71-3.814-8.533-8.533-8.533s-8.533,3.823-8.533,8.533V349.867z"/> <path d="M341.333,332.8c0-94.106-76.561-170.667-170.667-170.667S0,238.694,0,332.8s76.561,170.667,170.667,170.667 S341.333,426.906,341.333,332.8z M170.667,486.4c-84.693,0-153.6-68.907-153.6-153.6s68.907-153.6,153.6-153.6 s153.6,68.907,153.6,153.6S255.36,486.4,170.667,486.4z"/> <path d="M170.667,290.133c9.412,0,17.067,7.654,17.067,17.067c0,4.71,3.823,8.533,8.533,8.533s8.533-3.823,8.533-8.533 c0-15.855-10.923-29.107-25.6-32.922v-1.212c0-4.71-3.823-8.533-8.533-8.533s-8.533,3.823-8.533,8.533v1.212 c-14.677,3.814-25.6,17.067-25.6,32.922c0,18.825,15.309,34.133,34.133,34.133c9.412,0,17.067,7.654,17.067,17.067 c0,9.412-7.654,17.067-17.067,17.067c-9.412,0-17.067-7.654-17.067-17.067c0-4.71-3.823-8.533-8.533-8.533 c-4.71,0-8.533,3.823-8.533,8.533c0,15.855,10.923,29.107,25.6,32.922v1.212c0,4.71,3.823,8.533,8.533,8.533 s8.533-3.823,8.533-8.533v-1.212c14.677-3.814,25.6-17.067,25.6-32.922c0-18.825-15.309-34.133-34.133-34.133 c-9.412,0-17.067-7.654-17.067-17.067S161.254,290.133,170.667,290.133z"/> <path d="M486.4,452.267c-4.719,0-8.533,3.823-8.533,8.533v25.6H281.6c-4.719,0-8.533,3.823-8.533,8.533s3.814,8.533,8.533,8.533 h204.8c4.719,0,8.533-3.823,8.533-8.533V460.8C494.933,456.09,491.119,452.267,486.4,452.267z"/> <path d="M503.467,384c-4.719,0-8.533,3.823-8.533,8.533v25.6H349.867c-4.719,0-8.533,3.823-8.533,8.533s3.814,8.533,8.533,8.533 h153.6c4.719,0,8.533-3.823,8.533-8.533v-34.133C512,387.823,508.186,384,503.467,384z"/> <path d="M170.667,196.267c-75.281,0-136.533,61.252-136.533,136.533s61.252,136.533,136.533,136.533S307.2,408.081,307.2,332.8 S245.948,196.267,170.667,196.267z M170.667,452.267C104.789,452.267,51.2,398.677,51.2,332.8s53.589-119.467,119.467-119.467 S290.133,266.923,290.133,332.8S236.544,452.267,170.667,452.267z"/> </g> </g> </g> </g>
</svg>